<?xml version="1.0" standalone="yes"?>
<svg xmlns="http://www.w3.org/2000/svg" width="458" height="458">
<path style="fill:#f5f5f5; stroke:none;" d="M0 0L0 458L458 458L458 0L0 0z"/>
<path style="fill:#313131; stroke:none;" d="M38 0L39 1L38 0z"/>
<path style="fill:#474747; stroke:none;" d="M39 0L40 1L39 0z"/>
<path style="fill:#b2b2b2; stroke:none;" d="M40 0L40 1L43 1L40 0M415 0L415 1L418 1L415 0z"/>
<path style="fill:#474747; stroke:none;" d="M418 0L419 1L418 0z"/>
<path style="fill:#313131; stroke:none;" d="M419 0L420 1L419 0M33 1L34 2L33 1z"/>
<path style="fill:#474747; stroke:none;" d="M34 1L35 2L34 1z"/>
<path style="fill:#b2b2b2; stroke:none;" d="M35 1L36 2L35 1M422 1L423 2L422 1z"/>
<path style="fill:#474747; stroke:none;" d="M423 1L424 2L423 1z"/>
<path style="fill:#313131; stroke:none;" d="M424 1L425 2L424 1M30 2L31 3L30 2z"/>
<path style="fill:#747474; stroke:none;" d="M31 2L32 3L31 2M426 2L427 3L426 2z"/>
<path style="fill:#313131; stroke:none;" d="M427 2L428 3L427 2z"/>
<path style="fill:#747474; stroke:none;" d="M28 3L29 4L28 3M429 3L430 4L429 3z"/>
<path style="fill:#b2b2b2; stroke:none;" d="M26 4L27 5L26 4M431 4L432 5L431 4M24 5L25 6L24 5M433 5L434 6L433 5z"/>
<path style="fill:#747474; stroke:none;" d="M22 6L23 7L22 6M435 6L436 7L435 6z"/>
<path style="fill:#313131; stroke:none;" d="M20 7L21 8L20 7z"/>
<path style="fill:#b2b2b2; stroke:none;" d="M21 7L22 8L21 7M436 7L437 8L436 7z"/>
<path style="fill:#313131; stroke:none;" d="M437 7L438 8L437 7z"/>
<path style="fill:#747474; stroke:none;" d="M19 8L20 9L19 8M438 8L439 9L438 8z"/>
<path style="fill:#b2b2b2; stroke:none;" d="M18 9L19 10L18 9M439 9L440 10L439 9z"/>
<path style="fill:#474747; stroke:none;" d="M16 10L15 12L16 10M441 10L443 12L441 10z"/>
<path style="fill:#747474; stroke:none;" d="M14 12L15 13L14 12M443 12L444 13L443 12M13 13L14 14L13 13M444 13L445 14L444 13M12 14L13 15L12 14M445 14L446 15L445 14z"/>
<path style="fill:#474747; stroke:none;" d="M11 15L12 16L11 15M446 15L447 16L446 15M10 16L11 17L10 16M447 16L448 17L447 16z"/>
<path style="fill:#b2b2b2; stroke:none;" d="M9 18L10 19L9 18M448 18L449 19L448 18z"/>
<path style="fill:#747474; stroke:none;" d="M8 19L9 20L8 19M449 19L450 20L449 19z"/>
<path style="fill:#313131; stroke:none;" d="M7 20L8 21L7 20M450 20L451 21L450 20z"/>
<path style="fill:#b2b2b2; stroke:none;" d="M7 21L8 22L7 21M450 21L451 22L450 21z"/>
<path style="fill:#747474; stroke:none;" d="M6 22L7 23L6 22M451 22L452 23L451 22z"/>
<path style="fill:#b2b2b2; stroke:none;" d="M5 24L6 25L5 24M452 24L453 25L452 24M4 26L5 27L4 26M453 26L454 27L453 26z"/>
<path style="fill:#747474; stroke:none;" d="M3 28L4 29L3 28M454 28L455 29L454 28z"/>
<path style="fill:#313131; stroke:none;" d="M2 30L3 31L2 30M455 30L456 31L455 30z"/>
<path style="fill:#747474; stroke:none;" d="M2 31L3 32L2 31M455 31L456 32L455 31z"/>
<path style="fill:#313131; stroke:none;" d="M1 33L2 34L1 33M456 33L457 34L456 33z"/>
<path style="fill:#474747; stroke:none;" d="M1 34L2 35L1 34M456 34L457 35L456 34z"/>
<path style="fill:#b2b2b2; stroke:none;" d="M1 35L2 36L1 35M456 35L457 36L456 35z"/>
<path style="fill:#313131; stroke:none;" d="M0 38L1 39L0 38M457 38L458 39L457 38z"/>
<path style="fill:#474747; stroke:none;" d="M0 39L1 40L0 39M457 39L458 40L457 39z"/>
<path style="fill:#b2b2b2; stroke:none;" d="M0 40L0 43L1 43L0 40M457 40L457 43L458 43L457 40M104 131L104 132L128 132L104 131M189 131L189 132L213 132L189 131z"/>
<path style="fill:#747474; stroke:none;" d="M101 132L102 133L101 132M130 132L131 133L130 132M186 132L187 133L186 132z"/>
<path style="fill:#474747; stroke:none;" d="M215 132L216 133L215 132z"/>
<path style="fill:#313131; stroke:none;" d="M100 133L101 134L100 133M131 133L132 134L131 133M185 133L186 134L185 133M216 133L217 134L216 133z"/>
<path style="fill:#747474; stroke:none;" d="M99 134L100 135L99 134M132 134L133 135L132 134M184 134L185 135L184 134M217 134L218 135L217 134z"/>
<path style="fill:#313131; stroke:none;" d="M99 135L100 136L99 135z"/>
<path style="fill:#474747; stroke:none;" d="M132 135L133 136L132 135z"/>
<path style="fill:#313131; stroke:none;" d="M184 135L185 136L184 135M217 135L218 136L217 135M132 136L133 137L132 136z"/>
<path style="fill:#b2b2b2; stroke:none;" d="M282.667 167.333L283.333 167.667L282.667 167.333z"/>
<path style="fill:#747474; stroke:none;" d="M284.667 167.333L285.333 167.667L284.667 167.333z"/>
<path style="fill:#474747; stroke:none;" d="M286 167L286 168L290 168L286 167z"/>
<path style="fill:#313131; stroke:none;" d="M290 167L290 168L354 168L334 167L290 167z"/>
<path style="fill:#474747; stroke:none;" d="M354 167L355 168L354 167z"/>
<path style="fill:#747474; stroke:none;" d="M355 167L356 168L355 167z"/>
<path style="fill:#b2b2b2; stroke:none;" d="M277 168L278 169L277 168z"/>
<path style="fill:#747474; stroke:none;" d="M278 168L279 169L278 168z"/>
<path style="fill:#313131; stroke:none;" d="M279 168L280 169L279 168z"/>
<path style="fill:#747474; stroke:none;" d="M357 168L358 169L357 168z"/>
<path style="fill:#b2b2b2; stroke:none;" d="M273 169L274 170L273 169z"/>
<path style="fill:#747474; stroke:none;" d="M274 169L275 170L274 169z"/>
<path style="fill:#313131; stroke:none;" d="M275 169L276 170L275 169z"/>
<path style="fill:#b2b2b2; stroke:none;" d="M358 169L359 170L358 169z"/>
<path style="fill:#747474; stroke:none;" d="M271 170L272 171L271 170z"/>
<path style="fill:#313131; stroke:none;" d="M272 170L273 171L272 170z"/>
<path style="fill:#474747; stroke:none;" d="M358 170L359 171L358 170z"/>
<path style="fill:#b2b2b2; stroke:none;" d="M268 171L269 172L268 171z"/>
<path style="fill:#474747; stroke:none;" d="M269 171L270 172L269 171M267 172L268 173L267 172z"/>
<path style="fill:#747474; stroke:none;" d="M265 173L266 174L265 173z"/>
<path style="fill:#b2b2b2; stroke:none;" d="M263 174L264 175L263 174z"/>
<path style="fill:#747474; stroke:none;" d="M262 175L263 176L262 175z"/>
<path style="fill:#313131; stroke:none;" d="M261 176L262 177L261 176M260 177L261 178L260 177z"/>
<path style="fill:#b2b2b2; stroke:none;" d="M258 178L259 179L258 178z"/>
<path style="fill:#313131; stroke:none;" d="M257 180L256 182L257 180z"/>
<path style="fill:#747474; stroke:none;" d="M255 182L256 183L255 182z"/>
<path style="fill:#b2b2b2; stroke:none;" d="M254 183L255 184L254 183z"/>
<path style="fill:#747474; stroke:none;" d="M253 185L254 186L253 185z"/>
<path style="fill:#b2b2b2; stroke:none;" d="M252 186L253 187L252 186z"/>
<path style="fill:#474747; stroke:none;" d="M252 187L253 188L252 187z"/>
<path style="fill:#b2b2b2; stroke:none;" d="M251 188L252 189L251 188z"/>
<path style="fill:#747474; stroke:none;" d="M251 189L252 190L251 189z"/>
<path style="fill:#b2b2b2; stroke:none;" d="M250 191L251 192L250 191z"/>
<path style="fill:#313131; stroke:none;" d="M250 192L251 193L250 192z"/>
<path style="fill:#b2b2b2; stroke:none;" d="M249 194L250 195L249 194z"/>
<path style="fill:#313131; stroke:none;" d="M249 195L250 196L249 195M294 196L294 197L297 197L294 196z"/>
<path style="fill:#474747; stroke:none;" d="M297 196L297 197L322 197L297 196z"/>
<path style="fill:#313131; stroke:none;" d="M322 196L323 197L322 196z"/>
<path style="fill:#b2b2b2; stroke:none;" d="M248.333 197.667L248.667 198.333L248.333 197.667z"/>
<path style="fill:#474747; stroke:none;" d="M289 197L290 198L289 197z"/>
<path style="fill:#747474; stroke:none;" d="M290 197L291 198L290 197z"/>
<path style="fill:#b2b2b2; stroke:none;" d="M291 197L292 198L291 197z"/>
<path style="fill:#474747; stroke:none;" d="M324 197L325 198L324 197z"/>
<path style="fill:#747474; stroke:none;" d="M287 198L288 199L287 198z"/>
<path style="fill:#b2b2b2; stroke:none;" d="M324 198L325 199L324 198z"/>
<path style="fill:#474747; stroke:none;" d="M248 199L249 200L248 199z"/>
<path style="fill:#313131; stroke:none;" d="M285 199L284 201L285 199M248 200L249 201L248 200z"/>
<path style="fill:#b2b2b2; stroke:none;" d="M133 201L135 203L133 201M183 201L182 203L183 201M283 202L284 203L283 202M247.333 203.667L247.667 204.333L247.333 203.667z"/>
<path style="fill:#747474; stroke:none;" d="M282 204L283 205L282 204M247 205L247 259L248 259L248 223L247 205z"/>
<path style="fill:#b2b2b2; stroke:none;" d="M282 205L283 206L282 205z"/>
<path style="fill:#474747; stroke:none;" d="M281 208L281 212L282 212L281 208z"/>
<path style="fill:#747474; stroke:none;" d="M281 212L281 252L282 252C282 240.566 285.411 222.512 281 212z"/>
<path style="fill:#313131; stroke:none;" d="M134 232L135 233L134 232z"/>
<path style="fill:#747474; stroke:none;" d="M135 232L135 233L182 233C169.823 227.89 148.265 232 135 232z"/>
<path style="fill:#313131; stroke:none;" d="M182 232L183 233L182 232z"/>
<path style="fill:#747474; stroke:none;" d="M133 233L134 234L133 233M183 233L184 234L183 233z"/>
<path style="fill:#b2b2b2; stroke:none;" d="M324 250L324 253L325 253L324 250z"/>
<path style="fill:#474747; stroke:none;" d="M281 252L281 256L282 256L281 252z"/>
<path style="fill:#747474; stroke:none;" d="M324 253L325 254L324 253z"/>
<path style="fill:#474747; stroke:none;" d="M324 254L325 255L324 254z"/>
<path style="fill:#313131; stroke:none;" d="M281 256L282 257L281 256z"/>
<path style="fill:#b2b2b2; stroke:none;" d="M323 256L324 257L323 256z"/>
<path style="fill:#747474; stroke:none;" d="M323 257L324 258L323 257z"/>
<path style="fill:#b2b2b2; stroke:none;" d="M282 258L283 259L282 258M247.333 259.667L247.667 260.333L247.333 259.667z"/>
<path style="fill:#747474; stroke:none;" d="M282 259L283 260L282 259M322 259L323 260L322 259z"/>
<path style="fill:#313131; stroke:none;" d="M282 260L283 261L282 260z"/>
<path style="fill:#b2b2b2; stroke:none;" d="M283 261L284 262L283 261z"/>
<path style="fill:#313131; stroke:none;" d="M321 261L322 262L321 261M283 262L284 263L283 262z"/>
<path style="fill:#747474; stroke:none;" d="M320 262L321 263L320 262M284 263L285 264L284 263z"/>
<path style="fill:#474747; stroke:none;" d="M319 263L320 264L319 263z"/>
<path style="fill:#313131; stroke:none;" d="M248 264L249 265L248 264z"/>
<path style="fill:#747474; stroke:none;" d="M285 264L286 265L285 264z"/>
<path style="fill:#b2b2b2; stroke:none;" d="M317 264L318 265L317 264z"/>
<path style="fill:#313131; stroke:none;" d="M318 264L319 265L318 264z"/>
<path style="fill:#474747; stroke:none;" d="M248 265L249 266L248 265z"/>
<path style="fill:#313131; stroke:none;" d="M286 265L287 266L286 265z"/>
<path style="fill:#b2b2b2; stroke:none;" d="M287 265L288 266L287 265M315 265L316 266L315 265z"/>
<path style="fill:#474747; stroke:none;" d="M316 265L317 266L316 265z"/>
<path style="fill:#b2b2b2; stroke:none;" d="M248.333 266.667L248.667 267.333L248.333 266.667z"/>
<path style="fill:#313131; stroke:none;" d="M288 266L289 267L288 266z"/>
<path style="fill:#747474; stroke:none;" d="M289 266L290 267L289 266z"/>
<path style="fill:#b2b2b2; stroke:none;" d="M290 266L291 267L290 266M312.667 266.333L313.333 266.667L312.667 266.333z"/>
<path style="fill:#313131; stroke:none;" d="M314 266L315 267L314 266M293.667 267.333L294.333 267.667L293.667 267.333z"/>
<path style="fill:#747474; stroke:none;" d="M295 267L295 268L308 268L295 267z"/>
<path style="fill:#313131; stroke:none;" d="M308.667 267.333L309.333 267.667L308.667 267.333M249 269L250 270L249 269z"/>
<path style="fill:#b2b2b2; stroke:none;" d="M249 270L250 271L249 270z"/>
<path style="fill:#313131; stroke:none;" d="M250 272L251 273L250 272z"/>
<path style="fill:#747474; stroke:none;" d="M250 273L251 274L250 273z"/>
<path style="fill:#474747; stroke:none;" d="M251 275L252 276L251 275z"/>
<path style="fill:#b2b2b2; stroke:none;" d="M251 276L252 277L251 276z"/>
<path style="fill:#313131; stroke:none;" d="M252 277L253 278L252 277z"/>
<path style="fill:#b2b2b2; stroke:none;" d="M252 278L253 279L252 278z"/>
<path style="fill:#313131; stroke:none;" d="M253 279L254 280L253 279z"/>
<path style="fill:#747474; stroke:none;" d="M254 281L255 282L254 281z"/>
<path style="fill:#313131; stroke:none;" d="M255 282L256 283L255 282z"/>
<path style="fill:#474747; stroke:none;" d="M324 282L323 284L324 282z"/>
<path style="fill:#b2b2b2; stroke:none;" d="M255 283L256 284L255 283M256 284L257 285L256 284z"/>
<path style="fill:#747474; stroke:none;" d="M257 285L258 286L257 285M322 285L323 286L322 285M258 286L259 287L258 286M259 287L260 288L259 287z"/>
<path style="fill:#b2b2b2; stroke:none;" d="M321 287L320 289L321 287M260 288L261 289L260 288M261 289L262 290L261 289z"/>
<path style="fill:#747474; stroke:none;" d="M319 289L320 290L319 289z"/>
<path style="fill:#474747; stroke:none;" d="M263 290L264 291L263 290z"/>
<path style="fill:#b2b2b2; stroke:none;" d="M318 290L319 291L318 290M264 291L265 292L264 291z"/>
<path style="fill:#313131; stroke:none;" d="M265 291L266 292L265 291M316 291L317 292L316 291z"/>
<path style="fill:#b2b2b2; stroke:none;" d="M317 291L318 292L317 291M266 292L267 293L266 292M315 292L316 293L315 292M268 293L269 294L268 293z"/>
<path style="fill:#313131; stroke:none;" d="M269 293L270 294L269 293z"/>
<path style="fill:#747474; stroke:none;" d="M313 293L314 294L313 293z"/>
<path style="fill:#b2b2b2; stroke:none;" d="M270 294L271 295L270 294z"/>
<path style="fill:#474747; stroke:none;" d="M271 294L272 295L271 294z"/>
<path style="fill:#747474; stroke:none;" d="M311 294L312 295L311 294z"/>
<path style="fill:#b2b2b2; stroke:none;" d="M273 295L274 296L273 295z"/>
<path style="fill:#747474; stroke:none;" d="M274 295L275 296L274 295z"/>
<path style="fill:#313131; stroke:none;" d="M275 295L276 296L275 295z"/>
<path style="fill:#747474; stroke:none;" d="M308 295L309 296L308 295z"/>
<path style="fill:#b2b2b2; stroke:none;" d="M309 295L310 296L309 295M278 296L279 297L278 296z"/>
<path style="fill:#747474; stroke:none;" d="M279 296L280 297L279 296z"/>
<path style="fill:#474747; stroke:none;" d="M280 296L281 297L280 296z"/>
<path style="fill:#313131; stroke:none;" d="M281 296L282 297L281 296M303 296L304 297L303 296z"/>
<path style="fill:#747474; stroke:none;" d="M304 296L305 297L304 296z"/>
<path style="fill:#b2b2b2; stroke:none;" d="M305.667 296.333L306.333 296.667L305.667 296.333M288 297L288 298L299 298L288 297z"/>
<path style="fill:#313131; stroke:none;" d="M132.333 298.667L132.667 299.333L132.333 298.667M184 299L185 300L184 299M217 299L218 300L217 299z"/>
<path style="fill:#474747; stroke:none;" d="M99 300L100 301L99 300z"/>
<path style="fill:#b2b2b2; stroke:none;" d="M132 300L133 301L132 300z"/>
<path style="fill:#747474; stroke:none;" d="M184 300L185 301L184 300M217 300L218 301L217 300z"/>
<path style="fill:#313131; stroke:none;" d="M131 301L132 302L131 301M101 302L102 303L101 302z"/>
<path style="fill:#474747; stroke:none;" d="M130 302L131 303L130 302M186 302L187 303L186 302M215 302L216 303L215 302z"/>
<path style="fill:#b2b2b2; stroke:none;" d="M103 303L104 304L103 303z"/>
<path style="fill:#747474; stroke:none;" d="M104 303L104 304L127 304L104 303z"/>
<path style="fill:#b2b2b2; stroke:none;" d="M127.667 303.333L128.333 303.667L127.667 303.333M188.667 303.333L189.333 303.667L188.667 303.333z"/>
<path style="fill:#747474; stroke:none;" d="M190 303L190 304L212 304L190 303z"/>
<path style="fill:#b2b2b2; stroke:none;" d="M212.667 303.333L213.333 303.667L212.667 303.333M324.333 306.667L324.667 307.333L324.333 306.667z"/>
<path style="fill:#474747; stroke:none;" d="M324 308L325 309L324 308z"/>
<path style="fill:#313131; stroke:none;" d="M324 309L325 310L324 309z"/>
<path style="fill:#b2b2b2; stroke:none;" d="M323 310L324 311L323 310z"/>
<path style="fill:#313131; stroke:none;" d="M358 310L359 311L358 310z"/>
<path style="fill:#747474; stroke:none;" d="M323 311L324 312L323 311z"/>
<path style="fill:#474747; stroke:none;" d="M358 311L359 312L358 311z"/>
<path style="fill:#747474; stroke:none;" d="M358.333 312.667L358.667 313.333L358.333 312.667z"/>
<path style="fill:#474747; stroke:none;" d="M322 313L323 314L322 313z"/>
<path style="fill:#747474; stroke:none;" d="M321 314L322 315L321 314z"/>
<path style="fill:#b2b2b2; stroke:none;" d="M358 314L359 315L358 314z"/>
<path style="fill:#474747; stroke:none;" d="M320 315L321 316L320 315z"/>
<path style="fill:#747474; stroke:none;" d="M318 316L319 317L318 316z"/>
<path style="fill:#b2b2b2; stroke:none;" d="M314 317L315 318L314 317z"/>
<path style="fill:#747474; stroke:none;" d="M315 317L316 318L315 317z"/>
<path style="fill:#313131; stroke:none;" d="M316 317L317 318L316 317z"/>
<path style="fill:#474747; stroke:none;" d="M357 317L358 318L357 317z"/>
<path style="fill:#b2b2b2; stroke:none;" d="M260 318L259 320L260 318z"/>
<path style="fill:#747474; stroke:none;" d="M261 318L262 319L261 318z"/>
<path style="fill:#313131; stroke:none;" d="M262 318L263 319L262 318z"/>
<path style="fill:#747474; stroke:none;" d="M357 318L358 319L357 318z"/>
<path style="fill:#b2b2b2; stroke:none;" d="M357 319L358 320L357 319z"/>
<path style="fill:#747474; stroke:none;" d="M258 321L259 322L258 321z"/>
<path style="fill:#474747; stroke:none;" d="M356 321L357 322L356 321z"/>
<path style="fill:#313131; stroke:none;" d="M258 322L259 323L258 322z"/>
<path style="fill:#b2b2b2; stroke:none;" d="M356 322L357 323L356 322z"/>
<path style="fill:#747474; stroke:none;" d="M355 324L356 325L355 324z"/>
<path style="fill:#474747; stroke:none;" d="M354 326L355 327L354 326z"/>
<path style="fill:#747474; stroke:none;" d="M353 328L354 329L353 328z"/>
<path style="fill:#b2b2b2; stroke:none;" d="M352 330L353 331L352 330z"/>
<path style="fill:#474747; stroke:none;" d="M351 331L352 332L351 331z"/>
<path style="fill:#313131; stroke:none;" d="M350 332L351 333L350 332z"/>
<path style="fill:#b2b2b2; stroke:none;" d="M350 333L351 334L350 333M349 334L350 335L349 334M348 335L349 336L348 335M347 336L348 337L347 336M346 337L347 338L346 337M345 338L346 339L345 338z"/>
<path style="fill:#474747; stroke:none;" d="M343 339L344 340L343 339z"/>
<path style="fill:#b2b2b2; stroke:none;" d="M342 340L343 341L342 340z"/>
<path style="fill:#474747; stroke:none;" d="M340 341L341 342L340 341M338 342L339 343L338 342z"/>
<path style="fill:#b2b2b2; stroke:none;" d="M339 342L340 343L339 342z"/>
<path style="fill:#313131; stroke:none;" d="M258 343L259 344L258 343z"/>
<path style="fill:#474747; stroke:none;" d="M336 343L337 344L336 343z"/>
<path style="fill:#b2b2b2; stroke:none;" d="M337 343L338 344L337 343z"/>
<path style="fill:#474747; stroke:none;" d="M258 344L259 345L258 344z"/>
<path style="fill:#747474; stroke:none;" d="M334 344L335 345L334 344z"/>
<path style="fill:#b2b2b2; stroke:none;" d="M258 345L259 346L258 345z"/>
<path style="fill:#313131; stroke:none;" d="M330 345L331 346L330 345z"/>
<path style="fill:#747474; stroke:none;" d="M331 345L332 346L331 345z"/>
<path style="fill:#b2b2b2; stroke:none;" d="M332 345L333 346L332 345z"/>
<path style="fill:#747474; stroke:none;" d="M259 346L260 347L259 346z"/>
<path style="fill:#474747; stroke:none;" d="M326 346L327 347L326 346z"/>
<path style="fill:#747474; stroke:none;" d="M327 346L328 347L327 346z"/>
<path style="fill:#b2b2b2; stroke:none;" d="M328 346L329 347L328 346M261 347L262 348L261 347z"/>
<path style="fill:#747474; stroke:none;" d="M262 347L263 348L262 347z"/>
<path style="fill:#474747; stroke:none;" d="M263 347L264 348L263 347z"/>
<path style="fill:#313131; stroke:none;" d="M264 347L264 348L316 348L299 347L264 347z"/>
<path style="fill:#747474; stroke:none;" d="M316 347L316 348L320 348L316 347z"/>
<path style="fill:#b2b2b2; stroke:none;" d="M320 347L320 348L323 348L320 347M0 415L0 418L1 418L0 415M457 415L457 418L458 418L457 415z"/>
<path style="fill:#474747; stroke:none;" d="M0 418L1 419L0 418M457 418L458 419L457 418z"/>
<path style="fill:#313131; stroke:none;" d="M0 419L1 420L0 419M457 419L458 420L457 419z"/>
<path style="fill:#b2b2b2; stroke:none;" d="M1 422L2 423L1 422M456 422L457 423L456 422z"/>
<path style="fill:#474747; stroke:none;" d="M1 423L2 424L1 423M456 423L457 424L456 423z"/>
<path style="fill:#313131; stroke:none;" d="M1 424L2 425L1 424M456 424L457 425L456 424z"/>
<path style="fill:#747474; stroke:none;" d="M2 426L3 427L2 426M455 426L456 427L455 426z"/>
<path style="fill:#313131; stroke:none;" d="M2 427L3 428L2 427M455 427L456 428L455 427z"/>
<path style="fill:#747474; stroke:none;" d="M3 429L4 430L3 429M454 429L455 430L454 429z"/>
<path style="fill:#b2b2b2; stroke:none;" d="M4 431L5 432L4 431M453 431L454 432L453 431M5 433L6 434L5 433M452 433L453 434L452 433z"/>
<path style="fill:#747474; stroke:none;" d="M6 435L7 436L6 435M451 435L452 436L451 435z"/>
<path style="fill:#b2b2b2; stroke:none;" d="M7 436L8 437L7 436M450 436L451 437L450 436z"/>
<path style="fill:#313131; stroke:none;" d="M7 437L8 438L7 437M450 437L451 438L450 437z"/>
<path style="fill:#747474; stroke:none;" d="M8 438L9 439L8 438M449 438L450 439L449 438z"/>
<path style="fill:#b2b2b2; stroke:none;" d="M9 439L10 440L9 439M448 439L449 440L448 439z"/>
<path style="fill:#474747; stroke:none;" d="M10 441L12 443L10 441M447 441L446 443L447 441z"/>
<path style="fill:#747474; stroke:none;" d="M12 443L13 444L12 443M445 443L446 444L445 443M13 444L14 445L13 444M444 444L445 445L444 444M14 445L15 446L14 445M443 445L444 446L443 445z"/>
<path style="fill:#474747; stroke:none;" d="M15 446L16 447L15 446M442 446L443 447L442 446M16 447L17 448L16 447M441 447L442 448L441 447z"/>
<path style="fill:#b2b2b2; stroke:none;" d="M18 448L19 449L18 448M439 448L440 449L439 448z"/>
<path style="fill:#747474; stroke:none;" d="M19 449L20 450L19 449M438 449L439 450L438 449z"/>
<path style="fill:#313131; stroke:none;" d="M20 450L21 451L20 450z"/>
<path style="fill:#b2b2b2; stroke:none;" d="M21 450L22 451L21 450M436 450L437 451L436 450z"/>
<path style="fill:#313131; stroke:none;" d="M437 450L438 451L437 450z"/>
<path style="fill:#747474; stroke:none;" d="M22 451L23 452L22 451M435 451L436 452L435 451z"/>
<path style="fill:#b2b2b2; stroke:none;" d="M24 452L25 453L24 452M433 452L434 453L433 452M26 453L27 454L26 453M431 453L432 454L431 453z"/>
<path style="fill:#747474; stroke:none;" d="M28 454L29 455L28 454M429 454L430 455L429 454z"/>
<path style="fill:#313131; stroke:none;" d="M30 455L31 456L30 455z"/>
<path style="fill:#747474; stroke:none;" d="M31 455L32 456L31 455M426 455L427 456L426 455z"/>
<path style="fill:#313131; stroke:none;" d="M427 455L428 456L427 455M33 456L34 457L33 456z"/>
<path style="fill:#474747; stroke:none;" d="M34 456L35 457L34 456z"/>
<path style="fill:#b2b2b2; stroke:none;" d="M35 456L36 457L35 456M422 456L423 457L422 456z"/>
<path style="fill:#474747; stroke:none;" d="M423 456L424 457L423 456z"/>
<path style="fill:#313131; stroke:none;" d="M424 456L425 457L424 456M38 457L39 458L38 457z"/>
<path style="fill:#474747; stroke:none;" d="M39 457L40 458L39 457z"/>
<path style="fill:#b2b2b2; stroke:none;" d="M40 457L40 458L43 458L40 457M415 457L415 458L418 458L415 457z"/>
<path style="fill:#474747; stroke:none;" d="M418 457L419 458L418 457z"/>
<path style="fill:#313131; stroke:none;" d="M419 457L420 458L419 457z"/>
</svg>
