<?xml version="1.0" standalone="no"?>
<!DOCTYPE svg PUBLIC "-//W3C//DTD SVG 20010904//EN"
 "http://www.w3.org/TR/2001/REC-SVG-20010904/DTD/svg10.dtd">
<svg version="1.0" xmlns="http://www.w3.org/2000/svg"
 width="700.000000pt" height="700.000000pt" viewBox="0 0 700.000000 700.000000"
 preserveAspectRatio="xMidYMid meet">
<metadata>
Created by potrace 1.14, written by Peter Selinger 2001-2017
</metadata>
<g transform="translate(0.000000,700.000000) scale(0.100000,-0.100000)"
fill="#000000" stroke="none">
<path d="M544 6985 c-132 -29 -255 -96 -347 -190 -55 -55 -117 -145 -136 -197
-7 -18 -17 -42 -22 -53 -40 -89 -39 -12 -38 -3055 l0 -2905 25 -85 c57 -194
180 -341 359 -429 154 -76 -104 -71 3140 -68 1601 1 2921 6 2935 9 212 60 353
165 453 339 28 48 63 141 75 199 9 45 9 5842 0 5895 -23 129 -96 264 -195 360
-66 63 -93 82 -178 124 -151 75 101 69 -3115 69 -2374 0 -2906 -2 -2956 -13z
m1457 -2014 l24 -19 3 -513 c2 -353 6 -517 13 -526 17 -20 741 -19 758 1 8 10
12 156 14 526 l2 512 24 19 c21 17 41 19 236 19 l214 0 20 -26 c21 -27 21 -27
21 -1280 0 -760 -4 -1262 -9 -1277 -6 -14 -20 -29 -33 -33 -31 -10 -388 -12
-426 -2 -22 6 -33 17 -41 41 -7 21 -10 205 -10 526 0 397 -2 496 -13 502 -7 5
-178 9 -379 9 -293 0 -369 -3 -378 -13 -7 -10 -11 -165 -11 -519 l-1 -505 -24
-23 c-24 -23 -31 -24 -217 -25 -106 0 -206 3 -222 7 -59 15 -55 -67 -56 1306
l0 1263 25 24 c24 25 25 25 233 25 192 0 212 -2 233 -19z m3442 -533 c16 -6
33 -22 38 -35 5 -14 9 -466 9 -1083 0 -1116 0 -1123 -45 -1255 -36 -105 -125
-215 -225 -276 -30 -19 -57 -34 -60 -35 -3 0 -22 -8 -43 -17 -97 -42 -188 -49
-670 -49 -442 -1 -459 0 -478 19 -18 17 -20 34 -20 179 -1 208 -2 198 20 225
l19 24 404 1 c354 1 411 3 456 18 59 20 94 58 111 121 13 47 15 405 3 405 -5
0 -13 -10 -19 -23 -30 -66 -120 -135 -223 -172 -48 -18 -80 -20 -260 -19 -194
0 -209 2 -286 27 -169 56 -278 160 -340 323 -45 120 -50 195 -48 669 1 413 3
445 22 518 65 240 249 401 493 432 30 4 55 8 57 9 1 2 240 3 530 4 359 0 536
-3 555 -10z"/>
<path d="M4446 3988 c-52 -11 -102 -50 -123 -96 -14 -32 -17 -87 -19 -422 -2
-419 1 -446 54 -502 42 -45 82 -53 257 -53 145 0 165 2 209 23 58 26 92 60
120 122 20 43 21 63 24 482 3 412 2 437 -15 446 -22 12 -452 12 -507 0z"/>
</g>
</svg>
