<!-- this file is never actually used, but it is the source for the favicon -->
<svg xmlns="http://www.w3.org/2000/svg" width="128" height="128" fill="none" viewBox="0 0 1024 1024"><mask id="a"><path fill="#fff" d="M0 0h1024v1024H0z"/><path fill="#000" d="M284.17 677.998h-50.762a18.054 18.054 0 0 1-4.963-.621q-5.565-1.595-7.043-7.276a18.477 18.477 0 0 1-.535-4.644V306.543a18.054 18.054 0 0 1 .622-4.963q1.594-5.565 7.275-7.043a18.477 18.477 0 0 1 4.644-.535h50.762a18.054 18.054 0 0 1 4.962.622q5.566 1.594 7.044 7.275a18.477 18.477 0 0 1 .535 4.644v140.341a8.601 8.601 0 0 0 .387 2.699q1.273 3.853 6.73 3.87a15.563 15.563 0 0 0 .049 0h100.926a9.457 9.457 0 0 0 2.6-.326q2.915-.835 3.689-3.81a9.678 9.678 0 0 0 .28-2.433V306.543a18.054 18.054 0 0 1 .622-4.963q1.594-5.565 7.275-7.043a18.477 18.477 0 0 1 4.644-.535h50.762a18.054 18.054 0 0 1 4.963.622q5.565 1.594 7.043 7.275a18.477 18.477 0 0 1 .535 4.644v358.914a18.054 18.054 0 0 1-.622 4.963q-1.594 5.565-7.275 7.044a18.477 18.477 0 0 1-4.644.534h-50.762a18.054 18.054 0 0 1-4.963-.621q-5.565-1.595-7.043-7.276a18.477 18.477 0 0 1-.535-4.644V525.714a9.457 9.457 0 0 0-.326-2.6q-.835-2.915-3.81-3.69a9.678 9.678 0 0 0-2.433-.28H303.877a11.332 11.332 0 0 0-2.749.304q-4.417 1.108-4.417 6.266v139.743a18.054 18.054 0 0 1-.622 4.963q-1.594 5.565-7.275 7.044a18.477 18.477 0 0 1-4.644.534Zm382.204-13.735h-19.707a134.823 134.823 0 0 1-26.553-2.45q-15.914-3.199-28.097-10.578a70.566 70.566 0 0 1-14.923-12.054q-20.019-21.286-23.049-58.485a169.757 169.757 0 0 1-.541-13.776v-96.148q0-36.035 14.981-59.179a75.809 75.809 0 0 1 10.699-13.082 83.556 83.556 0 0 1 36.283-20.451q16.303-4.631 36.575-4.631h137.952q13.138 0 13.138 12.541v294.417a134.053 134.053 0 0 1-2.797 28.254q-3.937 18.258-13.417 31.929a76.587 76.587 0 0 1-9.764 11.48 85.404 85.404 0 0 1-38.038 20.923q-13.365 3.575-29.254 4.077a166.59 166.59 0 0 1-5.267.083H589.933a30.033 30.033 0 0 1-3.303-.168q-3.372-.375-5.351-1.586a6.431 6.431 0 0 1-1.199-.934 7.609 7.609 0 0 1-1.638-2.561q-.945-2.331-1.039-5.891a30.38 30.38 0 0 1-.011-.804v-41.207a18.054 18.054 0 0 1 .622-4.963q1.594-5.565 7.275-7.043a18.477 18.477 0 0 1 4.644-.535h102.121q17.527 0 25.761-6.782a19.767 19.767 0 0 0 1.411-1.28 23.621 23.621 0 0 0 5.22-8.275q2.842-7.308 2.842-18.3v-45.387h-2.389a45.994 45.994 0 0 1-21.114 23.34 59.11 59.11 0 0 1-2.176 1.145 77.77 77.77 0 0 1-35.235 8.361Zm60.914-111.079V445.689a8.601 8.601 0 0 0-.387-2.698q-1.273-3.854-6.73-3.871a15.563 15.563 0 0 0-.049 0h-56.136q-17.24 0-25.246 6.561a18.813 18.813 0 0 0-1.628 1.501 23.106 23.106 0 0 0-4.731 7.601q-2.731 6.868-3.003 17.235a89.111 89.111 0 0 0-.03 2.337v88.982a74.941 74.941 0 0 0 .485 8.846q1.193 10 5.317 15.715a18.909 18.909 0 0 0 1.962 2.313 21.947 21.947 0 0 0 7.418 4.73q6.732 2.718 17.024 3a88.769 88.769 0 0 0 2.432.033h22.096a54.132 54.132 0 0 0 16.928-2.419q24.278-7.991 24.278-42.371Z"/></mask><circle cx="512" cy="512" r="512" fill="#1e1f22"/><rect width="1024" height="1024" fill="#f2f2f2" mask="url(#a)" rx="100"/></svg>