<svg xmlns="http://www.w3.org/2000/svg" width="128" height="128" fill="none" viewBox="0 0 1024 1024"><mask id="prefix__a"><path fill="#fff" d="M0 0h1024v1024H0z"/><path fill="#000" d="M284.17 677.998h-50.762a18.054 18.054 0 01-4.963-.621q-5.565-1.595-7.043-7.276a18.477 18.477 0 01-.535-4.644V306.543a18.054 18.054 0 01.622-4.963q1.594-5.565 7.275-7.043a18.477 18.477 0 014.644-.535h50.762a18.054 18.054 0 014.962.622q5.566 1.594 7.044 7.275a18.477 18.477 0 01.535 4.644v140.341a8.601 8.601 0 00.387 2.699q1.273 3.853 6.73 3.87a15.563 15.563 0 00.049 0h100.926a9.457 9.457 0 002.6-.326q2.915-.835 3.689-3.81a9.678 9.678 0 00.28-2.433V306.543a18.054 18.054 0 01.622-4.963q1.594-5.565 7.275-7.043a18.477 18.477 0 014.644-.535h50.762a18.054 18.054 0 014.963.622q5.565 1.594 7.043 7.275a18.477 18.477 0 01.535 4.644v358.914a18.054 18.054 0 01-.622 4.963q-1.594 5.565-7.275 7.044a18.477 18.477 0 01-4.644.534h-50.762a18.054 18.054 0 01-4.963-.621q-5.565-1.595-7.043-7.276a18.477 18.477 0 01-.535-4.644V525.714a9.457 9.457 0 00-.326-2.6q-.835-2.915-3.81-3.69a9.678 9.678 0 00-2.433-.28H303.877a11.332 11.332 0 00-2.749.304q-4.417 1.108-4.417 6.266v139.743a18.054 18.054 0 01-.622 4.963q-1.594 5.565-7.275 7.044a18.477 18.477 0 01-4.644.534zm382.204-13.735h-19.707a134.823 134.823 0 01-26.553-2.45q-15.914-3.199-28.097-10.578a70.566 70.566 0 01-14.923-12.054q-20.019-21.286-23.049-58.485a169.757 169.757 0 01-.541-13.776v-96.148q0-36.035 14.981-59.179a75.809 75.809 0 0110.699-13.082 83.556 83.556 0 0136.283-20.451q16.303-4.631 36.575-4.631h137.952q13.138 0 13.138 12.541v294.417a134.053 134.053 0 01-2.797 28.254q-3.937 18.258-13.417 31.929a76.587 76.587 0 01-9.764 11.48 85.404 85.404 0 01-38.038 20.923q-13.365 3.575-29.254 4.077a166.59 166.59 0 01-5.267.083H589.933a30.033 30.033 0 01-3.303-.168q-3.372-.375-5.351-1.586a6.431 6.431 0 01-1.199-.934 7.609 7.609 0 01-1.638-2.561q-.945-2.331-1.039-5.891a30.38 30.38 0 01-.011-.804v-41.207a18.054 18.054 0 01.622-4.963q1.594-5.565 7.275-7.043a18.477 18.477 0 014.644-.535h102.121q17.527 0 25.761-6.782a19.767 19.767 0 001.411-1.28 23.621 23.621 0 005.22-8.275q2.842-7.308 2.842-18.3v-45.387h-2.389a45.994 45.994 0 01-21.114 23.34 59.11 59.11 0 01-2.176 1.145 77.77 77.77 0 01-35.235 8.361zm60.914-111.079V445.689a8.601 8.601 0 00-.387-2.698q-1.273-3.854-6.73-3.871a15.563 15.563 0 00-.049 0h-56.136q-17.24 0-25.246 6.561a18.813 18.813 0 00-1.628 1.501 23.106 23.106 0 00-4.731 7.601q-2.731 6.868-3.003 17.235a89.111 89.111 0 00-.03 2.337v88.982a74.941 74.941 0 00.485 8.846q1.193 10 5.317 15.715a18.909 18.909 0 001.962 2.313 21.947 21.947 0 007.418 4.73q6.732 2.718 17.024 3a88.769 88.769 0 002.432.033h22.096a54.132 54.132 0 0016.928-2.419q24.278-7.991 24.278-42.371z"/></mask><rect width="1024" height="1024" fill="#f2f2f2" mask="url(#prefix__a)" rx="100"/></svg>